<svg xmlns="http://www.w3.org/2000/svg" xmlns:xlink="http://www.w3.org/1999/xlink" width="519" height="294" viewBox="0 0 519 294">
  <defs>
    <linearGradient id="linear-gradient" x1="-0.096" y1="1.092" x2="1.146" y2="-0.025" gradientUnits="objectBoundingBox">
      <stop offset="0" stop-color="#41f0a5"/>
      <stop offset="1" stop-color="#8ef8cb"/>
    </linearGradient>
    <clipPath id="clip-Principal_positivo_">
      <rect width="519" height="294"/>
    </clipPath>
  </defs>
  <g id="Principal_positivo_" data-name="Principal(positivo)" clip-path="url(#clip-Principal_positivo_)">
    <rect width="519" height="294" fill="rgba(255,255,255,0)"/>
    <path id="Trazado_522" data-name="Trazado 522" d="M44.608-57.892v9.184H28.618V0H17.056V-48.708H1.148v-9.184ZM78.064-46.084q7.872,0,12.546,5.166T95.284-26.4V0H83.8V-25.092q0-5.412-2.788-8.4A9.913,9.913,0,0,0,73.39-36.49a10.2,10.2,0,0,0-7.872,3.2q-2.952,3.2-2.952,9.184V0H51V-60.68H62.566v24.354A14.474,14.474,0,0,1,68.511-43.5,17.672,17.672,0,0,1,78.064-46.084Zm70.11,21.648a21.89,21.89,0,0,1-.41,3.936H114.472q.246,6.068,3.28,8.938a10.553,10.553,0,0,0,7.544,2.87,10.945,10.945,0,0,0,6.683-1.968,8.717,8.717,0,0,0,3.4-5.33H147.6a19.547,19.547,0,0,1-3.854,8.528,20.14,20.14,0,0,1-7.585,5.9A24.327,24.327,0,0,1,125.87.574a24.181,24.181,0,0,1-11.808-2.829,19.886,19.886,0,0,1-8.036-8.077,25.422,25.422,0,0,1-2.87-12.382,25.661,25.661,0,0,1,2.87-12.423,19.561,19.561,0,0,1,8.036-8.077A24.468,24.468,0,0,1,125.87-46a23.932,23.932,0,0,1,11.767,2.788,19.65,19.65,0,0,1,7.79,7.667A22.253,22.253,0,0,1,148.174-24.436ZM136.53-25.584q.246-5.576-2.911-8.446a11.1,11.1,0,0,0-7.749-2.87A11.357,11.357,0,0,0,118-34.03q-3.2,2.87-3.526,8.446Zm31.406,4.1V0H156.374V-57.892h21.074q10.25,0,15.457,4.92t5.207,13.366q0,8.282-5.371,13.2t-15.293,4.92Zm8.282-9.266q10.168,0,10.168-8.856,0-4.346-2.378-6.642t-7.79-2.3h-8.282V-30.75ZM226.648-46a25.191,25.191,0,0,1,11.931,2.788,20.405,20.405,0,0,1,8.323,8.077,24.537,24.537,0,0,1,3.034,12.423A24.311,24.311,0,0,1,246.9-10.332a20.754,20.754,0,0,1-8.323,8.077A24.894,24.894,0,0,1,226.648.574a24.894,24.894,0,0,1-11.931-2.829,20.754,20.754,0,0,1-8.323-8.077,24.311,24.311,0,0,1-3.034-12.382,24.537,24.537,0,0,1,3.034-12.423,20.405,20.405,0,0,1,8.323-8.077A25.191,25.191,0,0,1,226.648-46Zm0,10a11.09,11.09,0,0,0-8.2,3.4q-3.362,3.4-3.362,9.881t3.362,9.881a11.09,11.09,0,0,0,8.2,3.4,11.09,11.09,0,0,0,8.2-3.4q3.362-3.4,3.362-9.881T234.848-32.6A11.09,11.09,0,0,0,226.648-36Zm96.514-9.43L310.944,0H298.152l-9.758-33.046L278.39,0H265.6L253.462-45.428h11.562l7.38,35.1,10.086-35.1h12.218l10.168,35.1,7.462-35.1Zm48.462,20.992a21.889,21.889,0,0,1-.41,3.936H337.922q.246,6.068,3.28,8.938a10.553,10.553,0,0,0,7.544,2.87,10.945,10.945,0,0,0,6.683-1.968,8.717,8.717,0,0,0,3.4-5.33H371.05A19.547,19.547,0,0,1,367.2-7.462a20.14,20.14,0,0,1-7.585,5.9A24.326,24.326,0,0,1,349.32.574a24.181,24.181,0,0,1-11.808-2.829,19.886,19.886,0,0,1-8.036-8.077,25.422,25.422,0,0,1-2.87-12.382,25.661,25.661,0,0,1,2.87-12.423,19.561,19.561,0,0,1,8.036-8.077A24.468,24.468,0,0,1,349.32-46a23.932,23.932,0,0,1,11.767,2.788,19.65,19.65,0,0,1,7.79,7.667A22.253,22.253,0,0,1,371.624-24.436ZM359.98-25.584q.246-5.576-2.911-8.446a11.1,11.1,0,0,0-7.749-2.87,11.357,11.357,0,0,0-7.872,2.87q-3.2,2.87-3.526,8.446Zm31.406-11.152a19,19,0,0,1,6.724-6.847,17.863,17.863,0,0,1,9.348-2.5V-33.7H404.1q-12.71,0-12.71,11.808V0H379.824V-45.428h11.562Z" transform="translate(75.124 143.79)" fill="#fff"/>
    <g id="Grupo_205" data-name="Grupo 205" transform="translate(30.196 24.002)">
      <path id="Trazado_153" data-name="Trazado 153" d="M207.6,189.8v10.511c0,9.025-7.035,16.367-15.682,16.367H26.86c-8.647,0-15.682-7.343-15.682-16.367V28.033c0-9.026,7.035-16.367,15.682-16.367H191.922c8.647,0,15.682,7.342,15.682,16.367V38.545h11.178V28.033C218.782,12.576,206.732,0,191.922,0H26.86C12.05,0,0,12.576,0,28.033v172.28c0,15.457,12.05,28.034,26.86,28.034H191.922c14.81,0,26.86-12.577,26.86-28.034V189.8Z" transform="translate(0 0.001)" fill="url(#linear-gradient)"/>
    </g>
    <path id="Trazado_523" data-name="Trazado 523" d="M18.048-26.688a11.945,11.945,0,0,1,6.24,1.632,11.257,11.257,0,0,1,4.3,4.7,15.707,15.707,0,0,1,1.56,7.2,15.558,15.558,0,0,1-1.56,7.176,11.288,11.288,0,0,1-4.3,4.68A11.945,11.945,0,0,1,18.048.336a10.733,10.733,0,0,1-6.5-1.944A9.877,9.877,0,0,1,7.872-6.72V0H3.5V-35.52H7.872v15.888a9.877,9.877,0,0,1,3.672-5.112A10.733,10.733,0,0,1,18.048-26.688ZM16.8-22.8a9.142,9.142,0,0,0-4.608,1.176A8.113,8.113,0,0,0,8.976-18.24a10.842,10.842,0,0,0-1.152,5.088A10.7,10.7,0,0,0,8.976-8.088,8.305,8.305,0,0,0,12.192-4.7,9,9,0,0,0,16.8-3.5a8.519,8.519,0,0,0,6.5-2.568,9.9,9.9,0,0,0,2.424-7.08,9.9,9.9,0,0,0-2.424-7.08A8.519,8.519,0,0,0,16.8-22.8Zm42.48-3.552V0H54.912V-6.192a8.864,8.864,0,0,1-3.576,4.92A10.557,10.557,0,0,1,45.36.432,9.78,9.78,0,0,1,37.968-2.52q-2.832-2.952-2.832-8.472v-15.36H39.5v14.928A8.507,8.507,0,0,0,41.52-5.352a7.164,7.164,0,0,0,5.472,2.136,7.481,7.481,0,0,0,5.76-2.328q2.16-2.328,2.16-6.792V-26.352Zm15.264-.336A10.635,10.635,0,0,1,81.72-24.36,9.805,9.805,0,0,1,85.008-18.1H80.832a6.047,6.047,0,0,0-1.944-3.864,6.331,6.331,0,0,0-4.44-1.512,5.478,5.478,0,0,0-3.672,1.128,3.8,3.8,0,0,0-1.32,3.048,3.148,3.148,0,0,0,.888,2.328,5.7,5.7,0,0,0,2.208,1.344,36.834,36.834,0,0,0,3.624.984A35.6,35.6,0,0,1,80.9-13.272a7.406,7.406,0,0,1,3.072,2.232,6.271,6.271,0,0,1,1.272,4.128A6.486,6.486,0,0,1,82.824-1.68,9.773,9.773,0,0,1,76.368.336a12.367,12.367,0,0,1-7.68-2.256,9,9,0,0,1-3.5-6.288h4.224A5.5,5.5,0,0,0,71.5-4.32a7.534,7.534,0,0,0,4.872,1.488A5.065,5.065,0,0,0,79.9-3.984a3.886,3.886,0,0,0,1.272-3.024,3.308,3.308,0,0,0-.912-2.448A5.98,5.98,0,0,0,78-10.848a33,33,0,0,0-3.7-1.008,36.069,36.069,0,0,1-4.68-1.344,7.172,7.172,0,0,1-2.976-2.136,5.98,5.98,0,0,1-1.224-3.96,6.629,6.629,0,0,1,2.448-5.352A10.1,10.1,0,0,1,74.544-26.688ZM90.336-34.08a2.507,2.507,0,0,1,.816-1.944,3.082,3.082,0,0,1,2.16-.744,3.082,3.082,0,0,1,2.16.744,2.507,2.507,0,0,1,.816,1.944,2.507,2.507,0,0,1-.816,1.944,3.082,3.082,0,0,1-2.16.744,3.082,3.082,0,0,1-2.16-.744A2.507,2.507,0,0,1,90.336-34.08Zm5.136,7.728V0H91.1V-26.352Zm20.88-.432a9.839,9.839,0,0,1,7.44,2.952q2.832,2.952,2.832,8.52V0h-4.368V-14.928a8.419,8.419,0,0,0-2.016-6.048,7.207,7.207,0,0,0-5.472-2.112,7.481,7.481,0,0,0-5.76,2.328q-2.16,2.328-2.16,6.792V0H102.48V-26.352h4.368v6.24a8.977,8.977,0,0,1,3.576-4.944A10.367,10.367,0,0,1,116.352-26.784ZM157.584-14.64a13.007,13.007,0,0,1-.192,2.4H136.32q.144,4.512,2.568,6.768a8.38,8.38,0,0,0,5.928,2.256,8.568,8.568,0,0,0,5.3-1.608,6.648,6.648,0,0,0,2.616-4.3h4.656a11.069,11.069,0,0,1-2.136,4.9,11.084,11.084,0,0,1-4.3,3.36,14.227,14.227,0,0,1-5.952,1.2,13.569,13.569,0,0,1-6.72-1.632,11.533,11.533,0,0,1-4.584-4.68,14.81,14.81,0,0,1-1.656-7.176,14.95,14.95,0,0,1,1.656-7.2,11.5,11.5,0,0,1,4.584-4.7,13.569,13.569,0,0,1,6.72-1.632,13.265,13.265,0,0,1,6.7,1.632,11.237,11.237,0,0,1,4.368,4.368A12.294,12.294,0,0,1,157.584-14.64Zm-4.416.288a8.965,8.965,0,0,0-.96-4.9,7.018,7.018,0,0,0-3.024-2.928,9.206,9.206,0,0,0-4.176-.96A8.643,8.643,0,0,0,138.96-20.9a9,9,0,0,0-2.64,6.552Zm18.384-12.336a10.635,10.635,0,0,1,7.176,2.328,9.805,9.805,0,0,1,3.288,6.264H177.84A6.047,6.047,0,0,0,175.9-21.96a6.331,6.331,0,0,0-4.44-1.512,5.477,5.477,0,0,0-3.672,1.128,3.8,3.8,0,0,0-1.32,3.048,3.148,3.148,0,0,0,.888,2.328,5.7,5.7,0,0,0,2.208,1.344,36.834,36.834,0,0,0,3.624.984,35.6,35.6,0,0,1,4.728,1.368,7.406,7.406,0,0,1,3.072,2.232,6.271,6.271,0,0,1,1.272,4.128,6.486,6.486,0,0,1-2.424,5.232A9.773,9.773,0,0,1,173.376.336,12.367,12.367,0,0,1,165.7-1.92a9,9,0,0,1-3.5-6.288h4.224A5.5,5.5,0,0,0,168.5-4.32a7.534,7.534,0,0,0,4.872,1.488A5.065,5.065,0,0,0,176.9-3.984a3.886,3.886,0,0,0,1.272-3.024,3.308,3.308,0,0,0-.912-2.448,5.981,5.981,0,0,0-2.256-1.392,33,33,0,0,0-3.7-1.008,36.069,36.069,0,0,1-4.68-1.344,7.172,7.172,0,0,1-2.976-2.136,5.98,5.98,0,0,1-1.224-3.96,6.629,6.629,0,0,1,2.448-5.352A10.1,10.1,0,0,1,171.552-26.688Zm24.816,0a10.635,10.635,0,0,1,7.176,2.328,9.805,9.805,0,0,1,3.288,6.264h-4.176a6.047,6.047,0,0,0-1.944-3.864,6.331,6.331,0,0,0-4.44-1.512,5.477,5.477,0,0,0-3.672,1.128,3.8,3.8,0,0,0-1.32,3.048,3.148,3.148,0,0,0,.888,2.328,5.7,5.7,0,0,0,2.208,1.344A36.834,36.834,0,0,0,198-14.64a35.6,35.6,0,0,1,4.728,1.368A7.406,7.406,0,0,1,205.8-11.04a6.271,6.271,0,0,1,1.272,4.128,6.486,6.486,0,0,1-2.424,5.232A9.773,9.773,0,0,1,198.192.336a12.367,12.367,0,0,1-7.68-2.256,9,9,0,0,1-3.5-6.288h4.224A5.5,5.5,0,0,0,193.32-4.32a7.534,7.534,0,0,0,4.872,1.488,5.065,5.065,0,0,0,3.528-1.152,3.886,3.886,0,0,0,1.272-3.024,3.308,3.308,0,0,0-.912-2.448,5.981,5.981,0,0,0-2.256-1.392,33,33,0,0,0-3.7-1.008,36.069,36.069,0,0,1-4.68-1.344,7.172,7.172,0,0,1-2.976-2.136,5.98,5.98,0,0,1-1.224-3.96,6.629,6.629,0,0,1,2.448-5.352A10.1,10.1,0,0,1,196.368-26.688Zm36.672,0a10.635,10.635,0,0,1,7.176,2.328A9.805,9.805,0,0,1,243.5-18.1h-4.176a6.047,6.047,0,0,0-1.944-3.864,6.331,6.331,0,0,0-4.44-1.512,5.477,5.477,0,0,0-3.672,1.128,3.8,3.8,0,0,0-1.32,3.048,3.148,3.148,0,0,0,.888,2.328,5.7,5.7,0,0,0,2.208,1.344,36.834,36.834,0,0,0,3.624.984,35.6,35.6,0,0,1,4.728,1.368,7.406,7.406,0,0,1,3.072,2.232,6.271,6.271,0,0,1,1.272,4.128A6.486,6.486,0,0,1,241.32-1.68,9.773,9.773,0,0,1,234.864.336a12.367,12.367,0,0,1-7.68-2.256,9,9,0,0,1-3.5-6.288H227.9a5.5,5.5,0,0,0,2.088,3.888,7.534,7.534,0,0,0,4.872,1.488,5.065,5.065,0,0,0,3.528-1.152,3.886,3.886,0,0,0,1.272-3.024,3.308,3.308,0,0,0-.912-2.448,5.981,5.981,0,0,0-2.256-1.392,33,33,0,0,0-3.7-1.008,36.069,36.069,0,0,1-4.68-1.344,7.172,7.172,0,0,1-2.976-2.136,5.98,5.98,0,0,1-1.224-3.96,6.629,6.629,0,0,1,2.448-5.352A10.1,10.1,0,0,1,233.04-26.688Zm28.224,0A12.824,12.824,0,0,1,269.616-24a11.386,11.386,0,0,1,4.08,7.2h-4.608a6.737,6.737,0,0,0-2.616-4.44,8.567,8.567,0,0,0-5.3-1.608,8.484,8.484,0,0,0-4.2,1.056,7.681,7.681,0,0,0-3.048,3.24,11.473,11.473,0,0,0-1.152,5.4,11.473,11.473,0,0,0,1.152,5.4,7.681,7.681,0,0,0,3.048,3.24,8.484,8.484,0,0,0,4.2,1.056,8.48,8.48,0,0,0,5.3-1.632,6.828,6.828,0,0,0,2.616-4.464H273.7a11.322,11.322,0,0,1-4.08,7.224A12.9,12.9,0,0,1,261.264.336a13.569,13.569,0,0,1-6.72-1.632,11.533,11.533,0,0,1-4.584-4.68,14.81,14.81,0,0,1-1.656-7.176,14.95,14.95,0,0,1,1.656-7.2,11.5,11.5,0,0,1,4.584-4.7A13.569,13.569,0,0,1,261.264-26.688Zm32.016-.1a9.839,9.839,0,0,1,7.44,2.952q2.832,2.952,2.832,8.52V0h-4.368V-14.928a8.419,8.419,0,0,0-2.016-6.048,7.207,7.207,0,0,0-5.472-2.112,7.481,7.481,0,0,0-5.76,2.328q-2.16,2.328-2.16,6.792V0h-4.368V-35.52h4.368v15.408a8.977,8.977,0,0,1,3.576-4.944A10.367,10.367,0,0,1,293.28-26.784Zm28.944.1a13.98,13.98,0,0,1,6.792,1.632,11.679,11.679,0,0,1,4.7,4.7,14.607,14.607,0,0,1,1.7,7.2,14.471,14.471,0,0,1-1.7,7.176,11.718,11.718,0,0,1-4.7,4.68A13.98,13.98,0,0,1,322.224.336,13.98,13.98,0,0,1,315.432-1.3a11.876,11.876,0,0,1-4.728-4.68,14.309,14.309,0,0,1-1.728-7.176,14.444,14.444,0,0,1,1.728-7.2,11.835,11.835,0,0,1,4.728-4.7A13.98,13.98,0,0,1,322.224-26.688Zm0,3.84a9.131,9.131,0,0,0-4.344,1.056,7.939,7.939,0,0,0-3.216,3.24,10.913,10.913,0,0,0-1.224,5.4A10.805,10.805,0,0,0,314.664-7.8a7.939,7.939,0,0,0,3.216,3.24A9.131,9.131,0,0,0,322.224-3.5a9.131,9.131,0,0,0,4.344-1.056,7.939,7.939,0,0,0,3.216-3.24,10.805,10.805,0,0,0,1.224-5.352,10.913,10.913,0,0,0-1.224-5.4,7.939,7.939,0,0,0-3.216-3.24A9.131,9.131,0,0,0,322.224-22.848Zm30.864-3.84a13.98,13.98,0,0,1,6.792,1.632,11.679,11.679,0,0,1,4.7,4.7,14.607,14.607,0,0,1,1.7,7.2,14.471,14.471,0,0,1-1.7,7.176,11.718,11.718,0,0,1-4.7,4.68A13.98,13.98,0,0,1,353.088.336,13.98,13.98,0,0,1,346.3-1.3a11.876,11.876,0,0,1-4.728-4.68,14.309,14.309,0,0,1-1.728-7.176,14.444,14.444,0,0,1,1.728-7.2,11.835,11.835,0,0,1,4.728-4.7A13.98,13.98,0,0,1,353.088-26.688Zm0,3.84a9.131,9.131,0,0,0-4.344,1.056,7.939,7.939,0,0,0-3.216,3.24,10.913,10.913,0,0,0-1.224,5.4A10.805,10.805,0,0,0,345.528-7.8a7.939,7.939,0,0,0,3.216,3.24A9.131,9.131,0,0,0,353.088-3.5a9.131,9.131,0,0,0,4.344-1.056,7.939,7.939,0,0,0,3.216-3.24,10.805,10.805,0,0,0,1.224-5.352,10.913,10.913,0,0,0-1.224-5.4,7.939,7.939,0,0,0-3.216-3.24A9.131,9.131,0,0,0,353.088-22.848Zm23.28-12.672V0H372V-35.52Z" transform="translate(88.766 192.513)" fill="#fff"/>
  </g>
</svg>
